<svg width="164" height="33" viewBox="0 0 164 33" fill="none" xmlns="http://www.w3.org/2000/svg">
<path d="M2.7662 32C2.17953 32 1.6862 31.8 1.2862 31.4C0.886195 31 0.686195 30.5067 0.686195 29.92V2.84C0.686195 2.22667 0.886195 1.73333 1.2862 1.36C1.6862 0.959999 2.17953 0.759999 2.7662 0.759999C3.5662 0.759999 4.17953 1.13333 4.6062 1.88L17.1262 26.96H15.8462L28.0462 1.88C28.4729 1.13333 29.0862 0.759999 29.8862 0.759999C30.4729 0.759999 30.9662 0.959999 31.3662 1.36C31.7662 1.73333 31.9662 2.22667 31.9662 2.84V29.92C31.9662 30.5067 31.7529 31 31.3262 31.4C30.9262 31.8 30.4462 32 29.8862 32C29.2995 32 28.8062 31.8 28.4062 31.4C28.0062 31 27.8062 30.5067 27.8062 29.92V8.6L28.6062 8.4L18.1262 29.76C17.6729 30.4533 17.0729 30.8 16.3262 30.8C15.4462 30.8 14.8062 30.3867 14.4062 29.56L4.0462 8.8L4.8462 8.6V29.92C4.8462 30.5067 4.6462 31 4.2462 31.4C3.8462 31.8 3.35286 32 2.7662 32ZM49.5031 32.16C47.3431 32.16 45.4364 31.6933 43.7831 30.76C42.1297 29.8 40.8231 28.4933 39.8631 26.84C38.9297 25.16 38.4631 23.24 38.4631 21.08C38.4631 18.8933 38.9297 16.9733 39.8631 15.32C40.8231 13.64 42.1297 12.3333 43.7831 11.4C45.4364 10.44 47.3431 9.96 49.5031 9.96C51.6364 9.96 53.5297 10.44 55.1831 11.4C56.8364 12.3333 58.1297 13.64 59.0631 15.32C60.0231 16.9733 60.5031 18.8933 60.5031 21.08C60.5031 23.24 60.0364 25.16 59.1031 26.84C58.1697 28.4933 56.8764 29.8 55.2231 30.76C53.5697 31.6933 51.6631 32.16 49.5031 32.16ZM49.5031 28.56C50.8897 28.56 52.1164 28.24 53.1831 27.6C54.2497 26.96 55.0764 26.08 55.6631 24.96C56.2764 23.84 56.5831 22.5467 56.5831 21.08C56.5831 19.6133 56.2764 18.32 55.6631 17.2C55.0764 16.0533 54.2497 15.16 53.1831 14.52C52.1164 13.88 50.8897 13.56 49.5031 13.56C48.1164 13.56 46.8897 13.88 45.8231 14.52C44.7564 15.16 43.9164 16.0533 43.3031 17.2C42.6897 18.32 42.3831 19.6133 42.3831 21.08C42.3831 22.5467 42.6897 23.84 43.3031 24.96C43.9164 26.08 44.7564 26.96 45.8231 27.6C46.8897 28.24 48.1164 28.56 49.5031 28.56ZM74.5353 32C73.2019 32 72.0019 31.6667 70.9353 31C69.8686 30.3067 69.0286 29.3733 68.4153 28.2C67.8019 27.0267 67.4953 25.7067 67.4953 24.24V5.16C67.4953 4.57333 67.6819 4.09333 68.0553 3.72C68.4286 3.34667 68.9086 3.16 69.4953 3.16C70.0819 3.16 70.5619 3.34667 70.9353 3.72C71.3086 4.09333 71.4953 4.57333 71.4953 5.16V24.24C71.4953 25.3067 71.7886 26.2 72.3753 26.92C72.9619 27.64 73.6819 28 74.5353 28H75.8953C76.3753 28 76.7753 28.1867 77.0953 28.56C77.4419 28.9333 77.6153 29.4133 77.6153 30C77.6153 30.5867 77.3886 31.0667 76.9353 31.44C76.5086 31.8133 75.9486 32 75.2553 32H74.5353ZM65.6553 14.36C65.0953 14.36 64.6419 14.2 64.2953 13.88C63.9486 13.56 63.7753 13.16 63.7753 12.68C63.7753 12.1467 63.9486 11.72 64.2953 11.4C64.6419 11.08 65.0953 10.92 65.6553 10.92H74.8953C75.4553 10.92 75.9086 11.08 76.2553 11.4C76.6019 11.72 76.7753 12.1467 76.7753 12.68C76.7753 13.16 76.6019 13.56 76.2553 13.88C75.9086 14.2 75.4553 14.36 74.8953 14.36H65.6553ZM85.0699 32C84.4833 32 83.9899 31.8133 83.5899 31.44C83.2166 31.04 83.0299 30.5467 83.0299 29.96V12.16C83.0299 11.5467 83.2166 11.0533 83.5899 10.68C83.9899 10.3067 84.4833 10.12 85.0699 10.12C85.6833 10.12 86.1766 10.3067 86.5499 10.68C86.9233 11.0533 87.1099 11.5467 87.1099 12.16V29.96C87.1099 30.5467 86.9233 31.04 86.5499 31.44C86.1766 31.8133 85.6833 32 85.0699 32ZM85.0699 6.56C84.3499 6.56 83.7233 6.30667 83.1899 5.8C82.6833 5.26667 82.4299 4.64 82.4299 3.92C82.4299 3.2 82.6833 2.58667 83.1899 2.08C83.7233 1.54667 84.3499 1.28 85.0699 1.28C85.7899 1.28 86.4033 1.54667 86.9099 2.08C87.4433 2.58667 87.7099 3.2 87.7099 3.92C87.7099 4.64 87.4433 5.26667 86.9099 5.8C86.4033 6.30667 85.7899 6.56 85.0699 6.56ZM102.1 31.96C101.274 31.96 100.634 31.52 100.18 30.64L91.7003 12.76C91.4869 12.3067 91.4603 11.8667 91.6203 11.44C91.8069 10.9867 92.1536 10.64 92.6603 10.4C93.1136 10.16 93.5669 10.12 94.0203 10.28C94.5003 10.44 94.8603 10.7467 95.1003 11.2L103.02 28.28H101.1L108.94 11.2C109.18 10.7467 109.54 10.44 110.02 10.28C110.527 10.12 111.034 10.16 111.54 10.4C112.02 10.6133 112.34 10.9467 112.5 11.4C112.66 11.8533 112.634 12.3067 112.42 12.76L103.94 30.64C103.54 31.52 102.927 31.96 102.1 31.96ZM124.953 32.16C123.006 32.16 121.26 31.68 119.713 30.72C118.166 29.7333 116.94 28.4133 116.033 26.76C115.153 25.08 114.713 23.1867 114.713 21.08C114.713 18.9733 115.193 17.08 116.153 15.4C117.14 13.72 118.46 12.4 120.113 11.44C121.793 10.4533 123.673 9.96 125.753 9.96C127.833 9.96 129.7 10.4533 131.353 11.44C133.006 12.4 134.313 13.72 135.273 15.4C136.26 17.08 136.753 18.9733 136.753 21.08H135.193C135.193 23.1867 134.74 25.08 133.833 26.76C132.953 28.4133 131.74 29.7333 130.193 30.72C128.646 31.68 126.9 32.16 124.953 32.16ZM125.753 28.56C127.113 28.56 128.326 28.24 129.393 27.6C130.46 26.9333 131.3 26.04 131.913 24.92C132.526 23.7733 132.833 22.4933 132.833 21.08C132.833 19.64 132.526 18.36 131.913 17.24C131.3 16.0933 130.46 15.2 129.393 14.56C128.326 13.8933 127.113 13.56 125.753 13.56C124.42 13.56 123.206 13.8933 122.113 14.56C121.046 15.2 120.193 16.0933 119.553 17.24C118.94 18.36 118.633 19.64 118.633 21.08C118.633 22.4933 118.94 23.7733 119.553 24.92C120.193 26.04 121.046 26.9333 122.113 27.6C123.206 28.24 124.42 28.56 125.753 28.56ZM134.713 32.04C134.126 32.04 133.633 31.8533 133.233 31.48C132.86 31.08 132.673 30.5867 132.673 30V23.88L133.433 19.64L136.753 21.08V30C136.753 30.5867 136.553 31.08 136.153 31.48C135.78 31.8533 135.3 32.04 134.713 32.04ZM151.945 32.16C149.999 32.16 148.252 31.68 146.705 30.72C145.159 29.7333 143.932 28.4133 143.025 26.76C142.145 25.08 141.705 23.1867 141.705 21.08C141.705 18.9733 142.185 17.08 143.145 15.4C144.132 13.72 145.452 12.4 147.105 11.44C148.785 10.4533 150.665 9.96 152.745 9.96C154.825 9.96 156.692 10.4533 158.345 11.44C159.999 12.4 161.305 13.72 162.265 15.4C163.252 17.08 163.745 18.9733 163.745 21.08H162.185C162.185 23.1867 161.732 25.08 160.825 26.76C159.945 28.4133 158.732 29.7333 157.185 30.72C155.639 31.68 153.892 32.16 151.945 32.16ZM152.745 28.56C154.105 28.56 155.319 28.24 156.385 27.6C157.452 26.9333 158.292 26.04 158.905 24.92C159.519 23.7733 159.825 22.4933 159.825 21.08C159.825 19.64 159.519 18.36 158.905 17.24C158.292 16.0933 157.452 15.2 156.385 14.56C155.319 13.8933 154.105 13.56 152.745 13.56C151.412 13.56 150.199 13.8933 149.105 14.56C148.039 15.2 147.185 16.0933 146.545 17.24C145.932 18.36 145.625 19.64 145.625 21.08C145.625 22.4933 145.932 23.7733 146.545 24.92C147.185 26.04 148.039 26.9333 149.105 27.6C150.199 28.24 151.412 28.56 152.745 28.56ZM161.705 32.04C161.119 32.04 160.625 31.8533 160.225 31.48C159.852 31.08 159.665 30.5867 159.665 30V23.88L160.425 19.64L163.745 21.08V30C163.745 30.5867 163.545 31.08 163.145 31.48C162.772 31.8533 162.292 32.04 161.705 32.04Z" fill="#9747FF"/>
</svg>