<svg width="314" height="82" viewBox="0 0 314 82" fill="none" xmlns="http://www.w3.org/2000/svg">
<path d="M56.7251 75.5C56.3731 75.5 56.0771 75.38 55.8371 75.14C55.5971 74.9 55.4771 74.604 55.4771 74.252V58.004C55.4771 57.636 55.5971 57.34 55.8371 57.116C56.0771 56.876 56.3731 56.756 56.7251 56.756C57.2051 56.756 57.5731 56.98 57.8291 57.428L65.3411 72.476H64.5731L71.8931 57.428C72.1491 56.98 72.5171 56.756 72.9971 56.756C73.3491 56.756 73.6451 56.876 73.8851 57.116C74.1251 57.34 74.2451 57.636 74.2451 58.004V74.252C74.2451 74.604 74.1171 74.9 73.8611 75.14C73.6211 75.38 73.3331 75.5 72.9971 75.5C72.6451 75.5 72.3491 75.38 72.1091 75.14C71.8691 74.9 71.7491 74.604 71.7491 74.252V61.46L72.2291 61.34L65.9411 74.156C65.6691 74.572 65.3091 74.78 64.8611 74.78C64.3331 74.78 63.9491 74.532 63.7091 74.036L57.4931 61.58L57.9731 61.46V74.252C57.9731 74.604 57.8531 74.9 57.6131 75.14C57.3731 75.38 57.0771 75.5 56.7251 75.5ZM84.2873 75.596C83.1193 75.596 82.0713 75.308 81.1433 74.732C80.2153 74.14 79.4793 73.348 78.9353 72.356C78.4073 71.348 78.1433 70.212 78.1433 68.948C78.1433 67.684 78.4313 66.548 79.0073 65.54C79.5993 64.532 80.3913 63.74 81.3833 63.164C82.3913 62.572 83.5193 62.276 84.7673 62.276C86.0153 62.276 87.1353 62.572 88.1273 63.164C89.1193 63.74 89.9033 64.532 90.4793 65.54C91.0713 66.548 91.3673 67.684 91.3673 68.948H90.4313C90.4313 70.212 90.1593 71.348 89.6153 72.356C89.0873 73.348 88.3593 74.14 87.4313 74.732C86.5033 75.308 85.4553 75.596 84.2873 75.596ZM84.7673 73.436C85.5833 73.436 86.3113 73.244 86.9513 72.86C87.5913 72.46 88.0953 71.924 88.4633 71.252C88.8313 70.564 89.0153 69.796 89.0153 68.948C89.0153 68.084 88.8313 67.316 88.4633 66.644C88.0953 65.956 87.5913 65.42 86.9513 65.036C86.3113 64.636 85.5833 64.436 84.7673 64.436C83.9673 64.436 83.2393 64.636 82.5833 65.036C81.9433 65.42 81.4313 65.956 81.0473 66.644C80.6793 67.316 80.4953 68.084 80.4953 68.948C80.4953 69.796 80.6793 70.564 81.0473 71.252C81.4313 71.924 81.9433 72.46 82.5833 72.86C83.2393 73.244 83.9673 73.436 84.7673 73.436ZM90.1433 75.524C89.7913 75.524 89.4953 75.412 89.2553 75.188C89.0313 74.948 88.9193 74.652 88.9193 74.3V70.628L89.3753 68.084L91.3673 68.948V74.3C91.3673 74.652 91.2473 74.948 91.0073 75.188C90.7833 75.412 90.4953 75.524 90.1433 75.524ZM97.3146 70.7L95.8266 69.068L103.195 62.492C103.435 62.268 103.699 62.164 103.987 62.18C104.291 62.196 104.547 62.324 104.755 62.564C104.979 62.804 105.083 63.068 105.067 63.356C105.051 63.644 104.923 63.9 104.683 64.124L97.3146 70.7ZM96.1866 75.5C95.8346 75.5 95.5466 75.396 95.3226 75.188C95.1146 74.964 95.0106 74.676 95.0106 74.324V57.932C95.0106 57.58 95.1146 57.3 95.3226 57.092C95.5466 56.868 95.8346 56.756 96.1866 56.756C96.5386 56.756 96.8186 56.868 97.0266 57.092C97.2506 57.3 97.3626 57.58 97.3626 57.932V74.324C97.3626 74.676 97.2506 74.964 97.0266 75.188C96.8186 75.396 96.5386 75.5 96.1866 75.5ZM104.755 75.38C104.499 75.588 104.211 75.676 103.891 75.644C103.587 75.628 103.331 75.492 103.123 75.236L98.2506 69.212L99.9306 67.628L104.923 73.772C105.131 74.028 105.219 74.308 105.187 74.612C105.171 74.9 105.027 75.156 104.755 75.38ZM113.647 75.596C112.319 75.596 111.135 75.316 110.095 74.756C109.071 74.18 108.263 73.396 107.671 72.404C107.095 71.396 106.807 70.244 106.807 68.948C106.807 67.636 107.079 66.484 107.623 65.492C108.183 64.484 108.951 63.7 109.927 63.14C110.903 62.564 112.023 62.276 113.287 62.276C114.535 62.276 115.607 62.556 116.503 63.116C117.399 63.66 118.079 64.42 118.543 65.396C119.023 66.356 119.263 67.468 119.263 68.732C119.263 69.036 119.159 69.292 118.951 69.5C118.743 69.692 118.479 69.788 118.159 69.788H108.487V67.868H118.087L117.103 68.54C117.087 67.74 116.927 67.028 116.623 66.404C116.319 65.764 115.887 65.26 115.327 64.892C114.767 64.524 114.087 64.34 113.287 64.34C112.375 64.34 111.591 64.54 110.935 64.94C110.295 65.34 109.807 65.892 109.471 66.596C109.135 67.284 108.967 68.068 108.967 68.948C108.967 69.828 109.167 70.612 109.567 71.3C109.967 71.988 110.519 72.532 111.223 72.932C111.927 73.332 112.735 73.532 113.647 73.532C114.143 73.532 114.647 73.444 115.159 73.268C115.687 73.076 116.111 72.86 116.431 72.62C116.671 72.444 116.927 72.356 117.199 72.356C117.487 72.34 117.735 72.42 117.943 72.596C118.215 72.836 118.359 73.1 118.375 73.388C118.391 73.676 118.263 73.924 117.991 74.132C117.447 74.564 116.767 74.916 115.951 75.188C115.151 75.46 114.383 75.596 113.647 75.596ZM131.769 81.26C131.609 81.26 131.417 81.212 131.193 81.116C130.489 80.796 130.297 80.292 130.617 79.604L137.937 63.068C138.257 62.396 138.761 62.204 139.449 62.492C140.169 62.796 140.369 63.3 140.049 64.004L132.705 80.516C132.513 81.012 132.201 81.26 131.769 81.26ZM134.601 74.972C134.297 75.1 134.009 75.116 133.737 75.02C133.481 74.908 133.273 74.7 133.113 74.396L127.617 63.956C127.457 63.652 127.433 63.364 127.545 63.092C127.673 62.804 127.889 62.596 128.193 62.468C128.497 62.34 128.785 62.332 129.057 62.444C129.329 62.54 129.537 62.74 129.681 63.044L134.937 73.484C135.097 73.788 135.153 74.084 135.105 74.372C135.073 74.644 134.905 74.844 134.601 74.972ZM147.838 75.596C146.542 75.596 145.398 75.316 144.406 74.756C143.414 74.18 142.63 73.396 142.054 72.404C141.494 71.396 141.214 70.244 141.214 68.948C141.214 67.636 141.494 66.484 142.054 65.492C142.63 64.484 143.414 63.7 144.406 63.14C145.398 62.564 146.542 62.276 147.838 62.276C149.118 62.276 150.254 62.564 151.246 63.14C152.238 63.7 153.014 64.484 153.574 65.492C154.15 66.484 154.438 67.636 154.438 68.948C154.438 70.244 154.158 71.396 153.598 72.404C153.038 73.396 152.262 74.18 151.27 74.756C150.278 75.316 149.134 75.596 147.838 75.596ZM147.838 73.436C148.67 73.436 149.406 73.244 150.046 72.86C150.686 72.476 151.182 71.948 151.534 71.276C151.902 70.604 152.086 69.828 152.086 68.948C152.086 68.068 151.902 67.292 151.534 66.62C151.182 65.932 150.686 65.396 150.046 65.012C149.406 64.628 148.67 64.436 147.838 64.436C147.006 64.436 146.27 64.628 145.63 65.012C144.99 65.396 144.486 65.932 144.118 66.62C143.75 67.292 143.566 68.068 143.566 68.948C143.566 69.828 143.75 70.604 144.118 71.276C144.486 71.948 144.99 72.476 145.63 72.86C146.27 73.244 147.006 73.436 147.838 73.436ZM163.601 75.62C162.497 75.62 161.505 75.388 160.625 74.924C159.761 74.444 159.073 73.748 158.561 72.836C158.065 71.924 157.817 70.804 157.817 69.476V63.572C157.817 63.22 157.929 62.932 158.153 62.708C158.393 62.468 158.689 62.348 159.041 62.348C159.393 62.348 159.681 62.468 159.905 62.708C160.145 62.932 160.265 63.22 160.265 63.572V69.476C160.265 70.372 160.433 71.116 160.769 71.708C161.105 72.284 161.561 72.716 162.137 73.004C162.713 73.276 163.361 73.412 164.081 73.412C164.769 73.412 165.377 73.276 165.905 73.004C166.449 72.732 166.881 72.364 167.201 71.9C167.521 71.436 167.681 70.916 167.681 70.34H169.193C169.193 71.332 168.945 72.228 168.449 73.028C167.969 73.828 167.305 74.46 166.457 74.924C165.625 75.388 164.673 75.62 163.601 75.62ZM168.905 75.5C168.553 75.5 168.257 75.388 168.017 75.164C167.793 74.924 167.681 74.628 167.681 74.276V63.572C167.681 63.204 167.793 62.908 168.017 62.684C168.257 62.46 168.553 62.348 168.905 62.348C169.273 62.348 169.569 62.46 169.793 62.684C170.017 62.908 170.129 63.204 170.129 63.572V74.276C170.129 74.628 170.017 74.924 169.793 75.164C169.569 75.388 169.273 75.5 168.905 75.5ZM175.616 67.292C175.616 66.332 175.848 65.476 176.312 64.724C176.792 63.956 177.432 63.348 178.232 62.9C179.032 62.452 179.912 62.228 180.872 62.228C181.832 62.228 182.544 62.388 183.008 62.708C183.488 63.012 183.672 63.38 183.56 63.812C183.512 64.036 183.416 64.212 183.272 64.34C183.144 64.452 182.992 64.524 182.816 64.556C182.64 64.588 182.448 64.58 182.24 64.532C181.216 64.324 180.296 64.308 179.48 64.484C178.664 64.66 178.016 64.988 177.536 65.468C177.072 65.948 176.84 66.556 176.84 67.292H175.616ZM175.64 75.5C175.256 75.5 174.96 75.404 174.752 75.212C174.544 75.004 174.44 74.7 174.44 74.3V63.572C174.44 63.188 174.544 62.892 174.752 62.684C174.96 62.476 175.256 62.372 175.64 62.372C176.04 62.372 176.336 62.476 176.528 62.684C176.736 62.876 176.84 63.172 176.84 63.572V74.3C176.84 74.684 176.736 74.98 176.528 75.188C176.336 75.396 176.04 75.5 175.64 75.5ZM196.263 75.5C195.559 75.5 194.935 75.308 194.391 74.924C193.847 74.54 193.423 74.02 193.119 73.364C192.815 72.692 192.663 71.924 192.663 71.06V57.956C192.663 57.604 192.775 57.316 192.999 57.092C193.223 56.868 193.511 56.756 193.863 56.756C194.215 56.756 194.503 56.868 194.727 57.092C194.951 57.316 195.063 57.604 195.063 57.956V71.06C195.063 71.652 195.175 72.14 195.399 72.524C195.623 72.908 195.911 73.1 196.263 73.1H196.863C197.183 73.1 197.439 73.212 197.631 73.436C197.839 73.66 197.943 73.948 197.943 74.3C197.943 74.652 197.791 74.94 197.487 75.164C197.183 75.388 196.791 75.5 196.311 75.5H196.263ZM201.803 75.5C201.451 75.5 201.155 75.388 200.915 75.164C200.691 74.924 200.579 74.628 200.579 74.276V63.596C200.579 63.228 200.691 62.932 200.915 62.708C201.155 62.484 201.451 62.372 201.803 62.372C202.171 62.372 202.467 62.484 202.691 62.708C202.915 62.932 203.027 63.228 203.027 63.596V74.276C203.027 74.628 202.915 74.924 202.691 75.164C202.467 75.388 202.171 75.5 201.803 75.5ZM201.803 60.236C201.371 60.236 200.995 60.084 200.675 59.78C200.371 59.46 200.219 59.084 200.219 58.652C200.219 58.22 200.371 57.852 200.675 57.548C200.995 57.228 201.371 57.068 201.803 57.068C202.235 57.068 202.603 57.228 202.907 57.548C203.227 57.852 203.387 58.22 203.387 58.652C203.387 59.084 203.227 59.46 202.907 59.78C202.603 60.084 202.235 60.236 201.803 60.236ZM208.997 75.5C208.693 75.5 208.421 75.388 208.181 75.164C207.941 74.94 207.821 74.644 207.821 74.276V62.444C207.821 61.292 208.045 60.292 208.493 59.444C208.957 58.596 209.597 57.94 210.413 57.476C211.229 56.996 212.173 56.756 213.245 56.756C213.597 56.756 213.885 56.86 214.109 57.068C214.349 57.276 214.469 57.54 214.469 57.86C214.469 58.164 214.349 58.428 214.109 58.652C213.885 58.86 213.597 58.964 213.245 58.964C212.653 58.964 212.133 59.1 211.685 59.372C211.237 59.644 210.885 60.02 210.629 60.5C210.389 60.98 210.269 61.548 210.269 62.204V74.276C210.269 74.644 210.157 74.94 209.933 75.164C209.709 75.388 209.397 75.5 208.997 75.5ZM206.789 64.916C206.453 64.916 206.181 64.82 205.973 64.628C205.765 64.436 205.661 64.196 205.661 63.908C205.661 63.588 205.765 63.332 205.973 63.14C206.181 62.948 206.453 62.852 206.789 62.852H212.717C213.053 62.852 213.325 62.948 213.533 63.14C213.741 63.332 213.845 63.588 213.845 63.908C213.845 64.196 213.741 64.436 213.533 64.628C213.325 64.82 213.053 64.916 212.717 64.916H206.789ZM222.093 75.596C220.765 75.596 219.581 75.316 218.541 74.756C217.517 74.18 216.709 73.396 216.117 72.404C215.541 71.396 215.253 70.244 215.253 68.948C215.253 67.636 215.525 66.484 216.069 65.492C216.629 64.484 217.397 63.7 218.373 63.14C219.349 62.564 220.469 62.276 221.733 62.276C222.981 62.276 224.053 62.556 224.949 63.116C225.845 63.66 226.525 64.42 226.989 65.396C227.469 66.356 227.709 67.468 227.709 68.732C227.709 69.036 227.605 69.292 227.397 69.5C227.189 69.692 226.925 69.788 226.605 69.788H216.933V67.868H226.533L225.549 68.54C225.533 67.74 225.373 67.028 225.069 66.404C224.765 65.764 224.333 65.26 223.773 64.892C223.213 64.524 222.533 64.34 221.733 64.34C220.821 64.34 220.037 64.54 219.381 64.94C218.741 65.34 218.253 65.892 217.917 66.596C217.581 67.284 217.413 68.068 217.413 68.948C217.413 69.828 217.613 70.612 218.013 71.3C218.413 71.988 218.965 72.532 219.669 72.932C220.373 73.332 221.181 73.532 222.093 73.532C222.589 73.532 223.093 73.444 223.605 73.268C224.133 73.076 224.557 72.86 224.877 72.62C225.117 72.444 225.373 72.356 225.645 72.356C225.933 72.34 226.181 72.42 226.389 72.596C226.661 72.836 226.805 73.1 226.821 73.388C226.837 73.676 226.709 73.924 226.437 74.132C225.893 74.564 225.213 74.916 224.397 75.188C223.597 75.46 222.829 75.596 222.093 75.596ZM244.03 75.596C242.702 75.596 241.518 75.316 240.478 74.756C239.454 74.18 238.646 73.396 238.054 72.404C237.478 71.396 237.19 70.244 237.19 68.948C237.19 67.636 237.462 66.484 238.006 65.492C238.566 64.484 239.334 63.7 240.31 63.14C241.286 62.564 242.406 62.276 243.67 62.276C244.918 62.276 245.99 62.556 246.886 63.116C247.782 63.66 248.462 64.42 248.926 65.396C249.406 66.356 249.646 67.468 249.646 68.732C249.646 69.036 249.542 69.292 249.334 69.5C249.126 69.692 248.862 69.788 248.542 69.788H238.87V67.868H248.47L247.486 68.54C247.47 67.74 247.31 67.028 247.006 66.404C246.702 65.764 246.27 65.26 245.71 64.892C245.15 64.524 244.47 64.34 243.67 64.34C242.758 64.34 241.974 64.54 241.318 64.94C240.678 65.34 240.19 65.892 239.854 66.596C239.518 67.284 239.35 68.068 239.35 68.948C239.35 69.828 239.55 70.612 239.95 71.3C240.35 71.988 240.902 72.532 241.606 72.932C242.31 73.332 243.118 73.532 244.03 73.532C244.526 73.532 245.03 73.444 245.542 73.268C246.07 73.076 246.494 72.86 246.814 72.62C247.054 72.444 247.31 72.356 247.582 72.356C247.87 72.34 248.118 72.42 248.326 72.596C248.598 72.836 248.742 73.1 248.758 73.388C248.774 73.676 248.646 73.924 248.374 74.132C247.83 74.564 247.15 74.916 246.334 75.188C245.534 75.46 244.766 75.596 244.03 75.596ZM257.772 75.596C256.604 75.596 255.556 75.308 254.628 74.732C253.7 74.14 252.964 73.348 252.42 72.356C251.892 71.348 251.628 70.212 251.628 68.948C251.628 67.684 251.916 66.548 252.492 65.54C253.084 64.532 253.876 63.74 254.868 63.164C255.876 62.572 257.004 62.276 258.252 62.276C259.5 62.276 260.62 62.572 261.612 63.164C262.604 63.74 263.388 64.532 263.964 65.54C264.556 66.548 264.852 67.684 264.852 68.948H263.916C263.916 70.212 263.644 71.348 263.1 72.356C262.572 73.348 261.844 74.14 260.916 74.732C259.988 75.308 258.94 75.596 257.772 75.596ZM258.252 73.436C259.068 73.436 259.796 73.244 260.436 72.86C261.076 72.46 261.58 71.924 261.948 71.252C262.316 70.564 262.5 69.796 262.5 68.948C262.5 68.084 262.316 67.316 261.948 66.644C261.58 65.956 261.076 65.42 260.436 65.036C259.796 64.636 259.068 64.436 258.252 64.436C257.452 64.436 256.724 64.636 256.068 65.036C255.428 65.42 254.916 65.956 254.532 66.644C254.164 67.316 253.98 68.084 253.98 68.948C253.98 69.796 254.164 70.564 254.532 71.252C254.916 71.924 255.428 72.46 256.068 72.86C256.724 73.244 257.452 73.436 258.252 73.436ZM263.628 75.524C263.276 75.524 262.98 75.412 262.74 75.188C262.516 74.948 262.404 74.652 262.404 74.3V70.628L262.86 68.084L264.852 68.948V74.3C264.852 74.652 264.732 74.948 264.492 75.188C264.268 75.412 263.98 75.524 263.628 75.524ZM273.271 75.596C272.151 75.596 271.111 75.428 270.151 75.092C269.207 74.74 268.471 74.3 267.943 73.772C267.703 73.516 267.599 73.228 267.631 72.908C267.679 72.572 267.839 72.3 268.111 72.092C268.431 71.836 268.743 71.732 269.047 71.78C269.367 71.812 269.639 71.948 269.863 72.188C270.135 72.492 270.567 72.78 271.159 73.052C271.767 73.308 272.439 73.436 273.175 73.436C274.103 73.436 274.807 73.284 275.287 72.98C275.783 72.676 276.039 72.284 276.055 71.804C276.071 71.324 275.839 70.908 275.359 70.556C274.895 70.204 274.039 69.916 272.791 69.692C271.175 69.372 269.999 68.892 269.263 68.252C268.543 67.612 268.183 66.828 268.183 65.9C268.183 65.084 268.423 64.412 268.903 63.884C269.383 63.34 269.999 62.94 270.751 62.684C271.503 62.412 272.287 62.276 273.103 62.276C274.159 62.276 275.095 62.444 275.911 62.78C276.727 63.116 277.375 63.58 277.855 64.172C278.079 64.428 278.183 64.7 278.167 64.988C278.151 65.26 278.015 65.492 277.759 65.684C277.503 65.86 277.199 65.916 276.847 65.852C276.495 65.788 276.199 65.644 275.959 65.42C275.559 65.036 275.127 64.772 274.663 64.628C274.199 64.484 273.663 64.412 273.055 64.412C272.351 64.412 271.751 64.532 271.255 64.772C270.775 65.012 270.535 65.364 270.535 65.828C270.535 66.116 270.607 66.38 270.751 66.62C270.911 66.844 271.215 67.052 271.663 67.244C272.111 67.42 272.767 67.596 273.631 67.772C274.831 68.012 275.775 68.316 276.463 68.684C277.167 69.052 277.671 69.484 277.975 69.98C278.279 70.46 278.431 71.02 278.431 71.66C278.431 72.396 278.231 73.06 277.831 73.652C277.447 74.244 276.871 74.716 276.103 75.068C275.351 75.42 274.407 75.596 273.271 75.596ZM282.99 75.5C282.638 75.5 282.342 75.388 282.102 75.164C281.878 74.924 281.766 74.628 281.766 74.276V63.596C281.766 63.228 281.878 62.932 282.102 62.708C282.342 62.484 282.638 62.372 282.99 62.372C283.358 62.372 283.654 62.484 283.878 62.708C284.102 62.932 284.214 63.228 284.214 63.596V74.276C284.214 74.628 284.102 74.924 283.878 75.164C283.654 75.388 283.358 75.5 282.99 75.5ZM282.99 60.236C282.558 60.236 282.182 60.084 281.862 59.78C281.558 59.46 281.406 59.084 281.406 58.652C281.406 58.22 281.558 57.852 281.862 57.548C282.182 57.228 282.558 57.068 282.99 57.068C283.422 57.068 283.79 57.228 284.094 57.548C284.414 57.852 284.574 58.22 284.574 58.652C284.574 59.084 284.414 59.46 284.094 59.78C283.79 60.084 283.422 60.236 282.99 60.236ZM294.936 75.596C293.608 75.596 292.424 75.316 291.384 74.756C290.36 74.18 289.552 73.396 288.96 72.404C288.384 71.396 288.096 70.244 288.096 68.948C288.096 67.636 288.368 66.484 288.912 65.492C289.472 64.484 290.24 63.7 291.216 63.14C292.192 62.564 293.312 62.276 294.576 62.276C295.824 62.276 296.896 62.556 297.792 63.116C298.688 63.66 299.368 64.42 299.832 65.396C300.312 66.356 300.552 67.468 300.552 68.732C300.552 69.036 300.448 69.292 300.24 69.5C300.032 69.692 299.768 69.788 299.448 69.788H289.776V67.868H299.376L298.392 68.54C298.376 67.74 298.216 67.028 297.912 66.404C297.608 65.764 297.176 65.26 296.616 64.892C296.056 64.524 295.376 64.34 294.576 64.34C293.664 64.34 292.88 64.54 292.224 64.94C291.584 65.34 291.096 65.892 290.76 66.596C290.424 67.284 290.256 68.068 290.256 68.948C290.256 69.828 290.456 70.612 290.856 71.3C291.256 71.988 291.808 72.532 292.512 72.932C293.216 73.332 294.024 73.532 294.936 73.532C295.432 73.532 295.936 73.444 296.448 73.268C296.976 73.076 297.4 72.86 297.72 72.62C297.96 72.444 298.216 72.356 298.488 72.356C298.776 72.34 299.024 72.42 299.232 72.596C299.504 72.836 299.648 73.1 299.664 73.388C299.68 73.676 299.552 73.924 299.28 74.132C298.736 74.564 298.056 74.916 297.24 75.188C296.44 75.46 295.672 75.596 294.936 75.596ZM304.851 67.292C304.851 66.332 305.083 65.476 305.547 64.724C306.027 63.956 306.667 63.348 307.467 62.9C308.267 62.452 309.147 62.228 310.107 62.228C311.067 62.228 311.779 62.388 312.243 62.708C312.723 63.012 312.907 63.38 312.795 63.812C312.747 64.036 312.651 64.212 312.507 64.34C312.379 64.452 312.227 64.524 312.051 64.556C311.875 64.588 311.683 64.58 311.475 64.532C310.451 64.324 309.531 64.308 308.715 64.484C307.899 64.66 307.251 64.988 306.771 65.468C306.307 65.948 306.075 66.556 306.075 67.292H304.851ZM304.875 75.5C304.491 75.5 304.195 75.404 303.987 75.212C303.779 75.004 303.675 74.7 303.675 74.3V63.572C303.675 63.188 303.779 62.892 303.987 62.684C304.195 62.476 304.491 62.372 304.875 62.372C305.275 62.372 305.571 62.476 305.763 62.684C305.971 62.876 306.075 63.172 306.075 63.572V74.3C306.075 74.684 305.971 74.98 305.763 75.188C305.571 75.396 305.275 75.5 304.875 75.5Z" fill="#545454"/>
<path d="M7.94541 43.5C7.24141 43.5 6.64941 43.26 6.16941 42.78C5.68941 42.3 5.44941 41.708 5.44941 41.004V8.508C5.44941 7.772 5.68941 7.18 6.16941 6.732C6.64941 6.252 7.24141 6.012 7.94541 6.012C8.90541 6.012 9.64141 6.46 10.1534 7.356L25.1774 37.452H23.6414L38.2814 7.356C38.7934 6.46 39.5294 6.012 40.4894 6.012C41.1934 6.012 41.7854 6.252 42.2654 6.732C42.7454 7.18 42.9854 7.772 42.9854 8.508V41.004C42.9854 41.708 42.7294 42.3 42.2174 42.78C41.7374 43.26 41.1614 43.5 40.4894 43.5C39.7854 43.5 39.1934 43.26 38.7134 42.78C38.2334 42.3 37.9934 41.708 37.9934 41.004V15.42L38.9534 15.18L26.3774 40.812C25.8334 41.644 25.1134 42.06 24.2174 42.06C23.1614 42.06 22.3934 41.564 21.9134 40.572L9.48141 15.66L10.4414 15.42V41.004C10.4414 41.708 10.2014 42.3 9.72141 42.78C9.24141 43.26 8.64941 43.5 7.94541 43.5ZM64.0297 43.692C61.4377 43.692 59.1497 43.132 57.1657 42.012C55.1817 40.86 53.6137 39.292 52.4617 37.308C51.3417 35.292 50.7817 32.988 50.7817 30.396C50.7817 27.772 51.3417 25.468 52.4617 23.484C53.6137 21.468 55.1817 19.9 57.1657 18.78C59.1497 17.628 61.4377 17.052 64.0297 17.052C66.5897 17.052 68.8617 17.628 70.8457 18.78C72.8297 19.9 74.3817 21.468 75.5017 23.484C76.6537 25.468 77.2297 27.772 77.2297 30.396C77.2297 32.988 76.6697 35.292 75.5497 37.308C74.4297 39.292 72.8777 40.86 70.8937 42.012C68.9097 43.132 66.6217 43.692 64.0297 43.692ZM64.0297 39.372C65.6937 39.372 67.1657 38.988 68.4457 38.22C69.7257 37.452 70.7177 36.396 71.4217 35.052C72.1577 33.708 72.5257 32.156 72.5257 30.396C72.5257 28.636 72.1577 27.084 71.4217 25.74C70.7177 24.364 69.7257 23.292 68.4457 22.524C67.1657 21.756 65.6937 21.372 64.0297 21.372C62.3657 21.372 60.8937 21.756 59.6137 22.524C58.3337 23.292 57.3257 24.364 56.5897 25.74C55.8537 27.084 55.4857 28.636 55.4857 30.396C55.4857 32.156 55.8537 33.708 56.5897 35.052C57.3257 36.396 58.3337 37.452 59.6137 38.22C60.8937 38.988 62.3657 39.372 64.0297 39.372ZM94.0683 43.5C92.4683 43.5 91.0283 43.1 89.7483 42.3C88.4683 41.468 87.4603 40.348 86.7243 38.94C85.9883 37.532 85.6203 35.948 85.6203 34.188V11.292C85.6203 10.588 85.8443 10.012 86.2923 9.564C86.7403 9.116 87.3163 8.892 88.0203 8.892C88.7243 8.892 89.3003 9.116 89.7483 9.564C90.1963 10.012 90.4203 10.588 90.4203 11.292V34.188C90.4203 35.468 90.7723 36.54 91.4763 37.404C92.1803 38.268 93.0443 38.7 94.0683 38.7H95.7003C96.2763 38.7 96.7563 38.924 97.1403 39.372C97.5563 39.82 97.7643 40.396 97.7643 41.1C97.7643 41.804 97.4923 42.38 96.9483 42.828C96.4363 43.276 95.7643 43.5 94.9323 43.5H94.0683ZM83.4123 22.332C82.7403 22.332 82.1963 22.14 81.7803 21.756C81.3643 21.372 81.1563 20.892 81.1563 20.316C81.1563 19.676 81.3643 19.164 81.7803 18.78C82.1963 18.396 82.7403 18.204 83.4123 18.204H94.5003C95.1723 18.204 95.7163 18.396 96.1323 18.78C96.5483 19.164 96.7563 19.676 96.7563 20.316C96.7563 20.892 96.5483 21.372 96.1323 21.756C95.7163 22.14 95.1723 22.332 94.5003 22.332H83.4123ZM106.71 43.5C106.006 43.5 105.414 43.276 104.934 42.828C104.486 42.348 104.262 41.756 104.262 41.052V19.692C104.262 18.956 104.486 18.364 104.934 17.916C105.414 17.468 106.006 17.244 106.71 17.244C107.446 17.244 108.038 17.468 108.486 17.916C108.934 18.364 109.158 18.956 109.158 19.692V41.052C109.158 41.756 108.934 42.348 108.486 42.828C108.038 43.276 107.446 43.5 106.71 43.5ZM106.71 12.972C105.846 12.972 105.094 12.668 104.454 12.06C103.846 11.42 103.542 10.668 103.542 9.804C103.542 8.94 103.846 8.204 104.454 7.596C105.094 6.956 105.846 6.636 106.71 6.636C107.574 6.636 108.31 6.956 108.918 7.596C109.558 8.204 109.878 8.94 109.878 9.804C109.878 10.668 109.558 11.42 108.918 12.06C108.31 12.668 107.574 12.972 106.71 12.972ZM127.146 43.452C126.154 43.452 125.386 42.924 124.842 41.868L114.666 20.412C114.41 19.868 114.378 19.34 114.57 18.828C114.794 18.284 115.21 17.868 115.818 17.58C116.362 17.292 116.906 17.244 117.45 17.436C118.026 17.628 118.458 17.996 118.746 18.54L128.25 39.036H125.946L135.354 18.54C135.642 17.996 136.074 17.628 136.65 17.436C137.258 17.244 137.866 17.292 138.474 17.58C139.05 17.836 139.434 18.236 139.626 18.78C139.818 19.324 139.786 19.868 139.53 20.412L129.354 41.868C128.874 42.924 128.138 43.452 127.146 43.452ZM154.57 43.692C152.234 43.692 150.138 43.116 148.282 41.964C146.426 40.78 144.954 39.196 143.866 37.212C142.81 35.196 142.282 32.924 142.282 30.396C142.282 27.868 142.858 25.596 144.01 23.58C145.194 21.564 146.778 19.98 148.762 18.828C150.778 17.644 153.034 17.052 155.53 17.052C158.026 17.052 160.266 17.644 162.25 18.828C164.234 19.98 165.802 21.564 166.954 23.58C168.138 25.596 168.73 27.868 168.73 30.396H166.858C166.858 32.924 166.314 35.196 165.226 37.212C164.17 39.196 162.714 40.78 160.858 41.964C159.002 43.116 156.906 43.692 154.57 43.692ZM155.53 39.372C157.162 39.372 158.618 38.988 159.898 38.22C161.178 37.42 162.186 36.348 162.922 35.004C163.658 33.628 164.026 32.092 164.026 30.396C164.026 28.668 163.658 27.132 162.922 25.788C162.186 24.412 161.178 23.34 159.898 22.572C158.618 21.772 157.162 21.372 155.53 21.372C153.93 21.372 152.474 21.772 151.162 22.572C149.882 23.34 148.858 24.412 148.09 25.788C147.354 27.132 146.986 28.668 146.986 30.396C146.986 32.092 147.354 33.628 148.09 35.004C148.858 36.348 149.882 37.42 151.162 38.22C152.474 38.988 153.93 39.372 155.53 39.372ZM166.282 43.548C165.578 43.548 164.986 43.324 164.506 42.876C164.058 42.396 163.834 41.804 163.834 41.1V33.756L164.746 28.668L168.73 30.396V41.1C168.73 41.804 168.49 42.396 168.01 42.876C167.562 43.324 166.986 43.548 166.282 43.548ZM186.96 43.692C184.624 43.692 182.528 43.116 180.672 41.964C178.816 40.78 177.344 39.196 176.256 37.212C175.2 35.196 174.672 32.924 174.672 30.396C174.672 27.868 175.248 25.596 176.4 23.58C177.584 21.564 179.168 19.98 181.152 18.828C183.168 17.644 185.424 17.052 187.92 17.052C190.416 17.052 192.656 17.644 194.64 18.828C196.624 19.98 198.192 21.564 199.344 23.58C200.528 25.596 201.12 27.868 201.12 30.396H199.248C199.248 32.924 198.704 35.196 197.616 37.212C196.56 39.196 195.104 40.78 193.248 41.964C191.392 43.116 189.296 43.692 186.96 43.692ZM187.92 39.372C189.552 39.372 191.008 38.988 192.288 38.22C193.568 37.42 194.576 36.348 195.312 35.004C196.048 33.628 196.416 32.092 196.416 30.396C196.416 28.668 196.048 27.132 195.312 25.788C194.576 24.412 193.568 23.34 192.288 22.572C191.008 21.772 189.552 21.372 187.92 21.372C186.32 21.372 184.864 21.772 183.552 22.572C182.272 23.34 181.248 24.412 180.48 25.788C179.744 27.132 179.376 28.668 179.376 30.396C179.376 32.092 179.744 33.628 180.48 35.004C181.248 36.348 182.272 37.42 183.552 38.22C184.864 38.988 186.32 39.372 187.92 39.372ZM198.672 43.548C197.968 43.548 197.376 43.324 196.896 42.876C196.448 42.396 196.224 41.804 196.224 41.1V33.756L197.136 28.668L201.12 30.396V41.1C201.12 41.804 200.88 42.396 200.4 42.876C199.952 43.324 199.376 43.548 198.672 43.548Z" fill="#9747FF"/>
</svg>